REM MD5 0ed24e804bb075ccc5eb28a2511ab190
FILE "Alien Trilogy (France) (Demo).bin" BINARY
  TRACK 01 MODE2/2352
    INDEX 01 00:00:00
  TRACK 02 AUDIO
    INDEX 00 05:59:12
    INDEX 01 06:03:12
  TRACK 03 AUDIO
    INDEX 00 08:13:42
    INDEX 01 08:17:42
  TRACK 04 AUDIO
    INDEX 00 08:24:40
    INDEX 01 08:28:40
REM LEADOUT 11:28:41
